<?xml version="1.0" encoding="utf-8"?>
<!-- Generator: Adobe Illustrator 24.2.1, SVG Export Plug-In . SVG Version: 6.00 Build 0)  -->
<svg version="1.1" id="Layer_1" xmlns="http://www.w3.org/2000/svg" xmlns:xlink="http://www.w3.org/1999/xlink" x="0px" y="0px"
	 viewBox="0 0 144 64.8" style="enable-background:new 0 0 144 64.8;" xml:space="preserve">
<style type="text/css">
	.st0{fill:none;stroke:#D3D3D3;stroke-width:0.8991;stroke-miterlimit:10;}
	.st1{fill:#2E3083;}
	.st2{fill:#F68B2D;}
	.st3{fill:#FFFFFF;}
	.st4{fill:#F68B2D;stroke:#FFFFFF;stroke-width:1.1358;stroke-miterlimit:10;}
</style>
<g>
	<path class="st0" d="M141.8,52.3c0,5-4.1,9-9,9H11.9c-5,0-9-4.1-9-9V12.5c0-5,4.1-9,9-9h120.9c5,0,9,4.1,9,9V52.3z"/>
</g>
<g>
	<g>
		<path class="st1" d="M57,42.2h-3.9V23.5H57V42.2z"/>
		<path class="st1" d="M63.7,28.3l0.1,1.6c1-1.2,2.3-1.9,4-1.9c1.5,0,2.6,0.4,3.3,1.3c0.7,0.9,1.1,2.2,1.1,3.9v9h-3.7v-8.9
			c0-0.8-0.2-1.4-0.5-1.7c-0.3-0.4-0.9-0.5-1.7-0.5c-1,0-1.8,0.4-2.4,1.3v9.8h-3.7V28.3H63.7z"/>
		<path class="st1" d="M82.6,38.3c0-0.5-0.2-0.8-0.7-1.1c-0.5-0.3-1.2-0.5-2.2-0.7c-3.3-0.7-5-2.1-5-4.2c0-1.2,0.5-2.3,1.5-3.1
			s2.4-1.2,4-1.2c1.8,0,3.2,0.4,4.2,1.2c1.1,0.8,1.6,1.9,1.6,3.2h-3.7c0-0.5-0.2-1-0.5-1.3c-0.3-0.3-0.9-0.5-1.6-0.5
			c-0.6,0-1.1,0.1-1.5,0.4c-0.3,0.3-0.5,0.6-0.5,1.1c0,0.4,0.2,0.7,0.6,1s1,0.5,2,0.7s1.7,0.4,2.3,0.6c2,0.7,2.9,2,2.9,3.7
			c0,1.3-0.5,2.3-1.6,3.1s-2.5,1.2-4.2,1.2c-1.2,0-2.2-0.2-3.1-0.6c-0.9-0.4-1.6-1-2.1-1.7c-0.5-0.7-0.8-1.5-0.8-2.3h3.5
			c0,0.7,0.3,1.2,0.7,1.5c0.5,0.4,1.1,0.5,1.8,0.5c0.7,0,1.2-0.1,1.6-0.4C82.4,39.1,82.6,38.8,82.6,38.3z"/>
		<path class="st1" d="M93.1,24.8v3.4h2.4V31h-2.4v6.9c0,0.5,0.1,0.9,0.3,1.1c0.2,0.2,0.6,0.3,1.1,0.3c0.4,0,0.8,0,1.1-0.1v2.8
			c-0.7,0.2-1.5,0.3-2.3,0.3c-2.6,0-3.9-1.3-4-3.9V31h-2v-2.7h2v-3.4H93.1z"/>
		<path class="st1" d="M105.6,42.2c-0.2-0.3-0.3-0.8-0.4-1.2c-0.9,1-2.1,1.5-3.5,1.5c-1.4,0-2.5-0.4-3.4-1.2c-0.9-0.8-1.3-1.8-1.3-3
			c0-1.5,0.5-2.6,1.6-3.4c1.1-0.8,2.7-1.2,4.7-1.2h1.7v-0.8c0-0.6-0.2-1.2-0.5-1.5c-0.3-0.4-0.9-0.6-1.6-0.6c-0.6,0-1.1,0.2-1.5,0.5
			c-0.4,0.3-0.5,0.7-0.5,1.2h-3.7c0-0.8,0.2-1.6,0.7-2.2c0.5-0.7,1.2-1.2,2.1-1.6c0.9-0.4,1.9-0.6,3.1-0.6c1.7,0,3.1,0.4,4.1,1.3
			c1,0.9,1.5,2.1,1.5,3.6v6c0,1.3,0.2,2.3,0.6,3v0.2H105.6z M102.5,39.6c0.5,0,1.1-0.1,1.5-0.4c0.5-0.2,0.8-0.6,1-1v-2.4h-1.4
			c-1.9,0-2.9,0.6-3,1.9l0,0.2c0,0.5,0.2,0.8,0.5,1.1C101.5,39.4,101.9,39.6,102.5,39.6z"/>
		<path class="st1" d="M115.6,42.2h-3.7V22.4h3.7V42.2z"/>
		<path class="st1" d="M122.5,42.2h-3.7V22.4h3.7V42.2z"/>
	</g>
	<g>
		<path class="st2" d="M44.2,40.2c0,0.8-0.6,1.4-1.4,1.4H21.2c-0.8,0-1.4-0.6-1.4-1.4v-5.5c0-0.8,0.6-1.4,1.4-1.4h21.6
			c0.8,0,1.4,0.6,1.4,1.4V40.2z"/>
	</g>
	<circle class="st3" cx="36.4" cy="37.6" r="1.2"/>
	<circle class="st3" cx="40.2" cy="37.6" r="1.2"/>
	<path class="st4" d="M32,34.5L32,34.5c-0.1,0-0.2,0-0.3-0.1L24,26.6c-0.1-0.2-0.1-0.4,0-0.6c0.1-0.1,0.2-0.1,0.3-0.1h4.3v-8.6
		c0-0.2,0.2-0.4,0.4-0.4h6.2c0.2,0,0.4,0.2,0.4,0.4v8.6h4.3c0.2,0,0.4,0.2,0.4,0.4c0,0.1,0,0.2-0.1,0.3l-7.8,7.8
		C32.2,34.4,32.1,34.5,32,34.5z"/>
</g>
</svg>
