<?xml version="1.0" encoding="UTF-8"?>
<svg width="81px" height="36px" viewBox="0 0 81 36" version="1.1" xmlns="http://www.w3.org/2000/svg" xmlns:xlink="http://www.w3.org/1999/xlink" xmlns:sketch="http://www.bohemiancoding.com/sketch/ns">
    <!-- Generator: Sketch 3.3.3 (12072) - http://www.bohemiancoding.com/sketch -->
    <title>btn-install</title>
    <desc>Created with Sketch.</desc>
    <defs></defs>
    <g id="Page-1" stroke="none" stroke-width="1" fill="none" fill-rule="evenodd" sketch:type="MSPage">
        <g id="btn-install" sketch:type="MSLayerGroup" transform="translate(0.000000, 1.000000)">
            <path d="M79.8857143,28.4101695 C79.8857143,31.2915254 77.5428571,33.5966102 74.7428571,33.5966102 L5.65714286,33.5966102 C2.8,33.5966102 0.514285714,31.2338983 0.514285714,28.4101695 L0.514285714,5.47457627 C0.514285714,2.59322034 2.85714286,0.288135593 5.65714286,0.288135593 L74.7428571,0.288135593 C77.6,0.288135593 79.8857143,2.65084746 79.8857143,5.47457627 L79.8857143,28.4101695 L79.8857143,28.4101695 Z" id="Shape" stroke="#D3D3D3" stroke-width="0.8991" sketch:type="MSShapeGroup"></path>
            <g id="Group" transform="translate(9.714286, 7.491525)" sketch:type="MSShapeGroup">
                <g transform="translate(19.428571, 3.457627)" id="Shape" fill="#2E3083">
                    <path d="M2.28571429,11.640678 L0.0571428571,11.640678 L0.0571428571,0.86440678 L2.28571429,0.86440678 L2.28571429,11.640678 L2.28571429,11.640678 Z"></path>
                    <path d="M6.11428571,3.63050847 L6.17142857,4.55254237 C6.74285714,3.86101695 7.48571429,3.45762712 8.45714286,3.45762712 C9.31428571,3.45762712 9.94285714,3.68813559 10.3428571,4.20677966 C10.7428571,4.72542373 10.9714286,5.47457627 10.9714286,6.45423729 L10.9714286,11.640678 L8.85714286,11.640678 L8.85714286,6.51186441 C8.85714286,6.05084746 8.74285714,5.70508475 8.57142857,5.53220339 C8.4,5.30169492 8.05714286,5.2440678 7.6,5.2440678 C7.02857143,5.2440678 6.57142857,5.47457627 6.22857143,5.99322034 L6.22857143,11.640678 L4.11428571,11.640678 L4.11428571,3.63050847 L6.11428571,3.63050847 L6.11428571,3.63050847 Z"></path>
                    <path d="M16.9142857,9.39322034 C16.9142857,9.10508475 16.8,8.93220339 16.5142857,8.75932203 C16.2285714,8.58644068 15.8285714,8.47118644 15.2571429,8.3559322 C13.3714286,7.95254237 12.4,7.14576271 12.4,5.93559322 C12.4,5.2440678 12.6857143,4.61016949 13.2571429,4.14915254 C13.8285714,3.68813559 14.6285714,3.45762712 15.5428571,3.45762712 C16.5714286,3.45762712 17.3714286,3.68813559 17.9428571,4.14915254 C18.5714286,4.61016949 18.8571429,5.2440678 18.8571429,5.99322034 L16.7428571,5.99322034 C16.7428571,5.70508475 16.6285714,5.41694915 16.4571429,5.2440678 C16.2857143,5.07118644 15.9428571,4.9559322 15.5428571,4.9559322 C15.2,4.9559322 14.9142857,5.01355932 14.6857143,5.18644068 C14.5142857,5.35932203 14.4,5.53220339 14.4,5.82033898 C14.4,6.05084746 14.5142857,6.22372881 14.7428571,6.39661017 C14.9714286,6.56949153 15.3142857,6.68474576 15.8857143,6.8 C16.4571429,6.91525424 16.8571429,7.03050847 17.2,7.14576271 C18.3428571,7.54915254 18.8571429,8.29830508 18.8571429,9.2779661 C18.8571429,10.0271186 18.5714286,10.6033898 17.9428571,11.0644068 C17.3142857,11.5254237 16.5142857,11.7559322 15.5428571,11.7559322 C14.8571429,11.7559322 14.2857143,11.640678 13.7714286,11.4101695 C13.2571429,11.179661 12.8571429,10.8338983 12.5714286,10.4305085 C12.2857143,10.0271186 12.1142857,9.56610169 12.1142857,9.10508475 L14.1142857,9.10508475 C14.1142857,9.50847458 14.2857143,9.79661017 14.5142857,9.96949153 C14.8,10.2 15.1428571,10.2576271 15.5428571,10.2576271 C15.9428571,10.2576271 16.2285714,10.2 16.4571429,10.0271186 C16.8,9.85423729 16.9142857,9.68135593 16.9142857,9.39322034 L16.9142857,9.39322034 Z"></path>
                    <path d="M22.9142857,1.61355932 L22.9142857,3.57288136 L24.2857143,3.57288136 L24.2857143,5.18644068 L22.9142857,5.18644068 L22.9142857,9.16271186 C22.9142857,9.45084746 22.9714286,9.68135593 23.0857143,9.79661017 C23.2,9.91186441 23.4285714,9.96949153 23.7142857,9.96949153 C23.9428571,9.96949153 24.1714286,9.96949153 24.3428571,9.91186441 L24.3428571,11.5254237 C23.9428571,11.640678 23.4857143,11.6983051 23.0285714,11.6983051 C21.5428571,11.6983051 20.8,10.9491525 20.7428571,9.45084746 L20.7428571,5.18644068 L19.6,5.18644068 L19.6,3.63050847 L20.7428571,3.63050847 L20.7428571,1.67118644 L22.9142857,1.67118644 L22.9142857,1.61355932 Z"></path>
                    <path d="M30.0571429,11.640678 C29.9428571,11.4677966 29.8857143,11.179661 29.8285714,10.9491525 C29.3142857,11.5254237 28.6285714,11.8135593 27.8285714,11.8135593 C27.0285714,11.8135593 26.4,11.5830508 25.8857143,11.1220339 C25.3714286,10.6610169 25.1428571,10.0847458 25.1428571,9.39322034 C25.1428571,8.52881356 25.4285714,7.89491525 26.0571429,7.43389831 C26.6857143,6.97288136 27.6,6.74237288 28.7428571,6.74237288 L29.7142857,6.74237288 L29.7142857,6.28135593 C29.7142857,5.93559322 29.6,5.58983051 29.4285714,5.41694915 C29.2571429,5.18644068 28.9142857,5.07118644 28.5142857,5.07118644 C28.1714286,5.07118644 27.8857143,5.18644068 27.6571429,5.35932203 C27.4285714,5.53220339 27.3714286,5.76271186 27.3714286,6.05084746 L25.2571429,6.05084746 C25.2571429,5.58983051 25.3714286,5.12881356 25.6571429,4.78305085 C25.9428571,4.37966102 26.3428571,4.09152542 26.8571429,3.86101695 C27.3714286,3.63050847 27.9428571,3.51525424 28.6285714,3.51525424 C29.6,3.51525424 30.4,3.74576271 30.9714286,4.26440678 C31.5428571,4.78305085 31.8285714,5.47457627 31.8285714,6.33898305 L31.8285714,9.79661017 C31.8285714,10.5457627 31.9428571,11.1220339 32.1714286,11.5254237 L32.1714286,11.640678 L30.0571429,11.640678 L30.0571429,11.640678 Z M28.2857143,10.1423729 C28.5714286,10.1423729 28.9142857,10.0847458 29.1428571,9.91186441 C29.4285714,9.79661017 29.6,9.56610169 29.7142857,9.33559322 L29.7142857,7.95254237 L28.9142857,7.95254237 C27.8285714,7.95254237 27.2571429,8.29830508 27.2,9.04745763 L27.2,9.16271186 C27.2,9.45084746 27.3142857,9.62372881 27.4857143,9.79661017 C27.7142857,10.0271186 27.9428571,10.1423729 28.2857143,10.1423729 L28.2857143,10.1423729 Z"></path>
                    <path d="M35.7714286,11.640678 L33.6571429,11.640678 L33.6571429,0.230508475 L35.7714286,0.230508475 L35.7714286,11.640678 L35.7714286,11.640678 Z"></path>
                    <path d="M39.7142857,11.640678 L37.6,11.640678 L37.6,0.230508475 L39.7142857,0.230508475 L39.7142857,11.640678 L39.7142857,11.640678 Z"></path>
                </g>
                <path d="M14.4,13.9457627 C14.4,14.4067797 14.0571429,14.7525424 13.6,14.7525424 L1.25714286,14.7525424 C0.8,14.7525424 0.457142857,14.4067797 0.457142857,13.9457627 L0.457142857,10.7762712 C0.457142857,10.3152542 0.8,9.96949153 1.25714286,9.96949153 L13.6,9.96949153 C14.0571429,9.96949153 14.4,10.3152542 14.4,10.7762712 L14.4,13.9457627 L14.4,13.9457627 Z" id="Shape" fill="#F68B2D"></path>
                <ellipse id="Oval" fill="#FFFFFF" cx="9.94285714" cy="12.4474576" rx="0.685714286" ry="0.691525424"></ellipse>
                <ellipse id="Oval" fill="#FFFFFF" cx="12.1142857" cy="12.4474576" rx="0.685714286" ry="0.691525424"></ellipse>
                <path d="M7.42857143,10.6610169 L7.42857143,10.6610169 C7.37142857,10.6610169 7.31428571,10.6610169 7.25714286,10.6033898 L2.85714286,6.10847458 C2.8,5.99322034 2.8,5.8779661 2.85714286,5.76271186 C2.91428571,5.70508475 2.97142857,5.70508475 3.02857143,5.70508475 L5.48571429,5.70508475 L5.48571429,0.749152542 C5.48571429,0.633898305 5.6,0.518644068 5.71428571,0.518644068 L9.25714286,0.518644068 C9.37142857,0.518644068 9.48571429,0.633898305 9.48571429,0.749152542 L9.48571429,5.70508475 L11.9428571,5.70508475 C12.0571429,5.70508475 12.1714286,5.82033898 12.1714286,5.93559322 C12.1714286,5.99322034 12.1714286,6.05084746 12.1142857,6.10847458 L7.65714286,10.6033898 C7.54285714,10.6033898 7.48571429,10.6610169 7.42857143,10.6610169 L7.42857143,10.6610169 Z" id="Shape" stroke="#FFFFFF" stroke-width="1.1358" fill="#F68B2D"></path>
            </g>
        </g>
    </g>
</svg>